<?xml version="1.0" standalone="no"?>
<svg xmlns:xlink="http://www.w3.org/1999/xlink" id="wave" style="transform:rotate(180deg); transition: 0.3s" viewBox="0 0 1440 490" version="1.1" xmlns="http://www.w3.org/2000/svg"><defs><linearGradient id="sw-gradient-0" x1="0" x2="0" y1="1" y2="0"><stop stop-color="rgba(243, 106, 62, 1)" offset="0%"/><stop stop-color="rgba(255, 179, 11, 1)" offset="100%"/></linearGradient></defs><path style="transform:translate(0, 0px); opacity:1" fill="url(#sw-gradient-0)" d="M0,98L40,106.2C80,114,160,131,240,187.8C320,245,400,343,480,383.8C560,425,640,408,720,383.8C800,359,880,327,960,326.7C1040,327,1120,359,1200,343C1280,327,1360,261,1440,261.3C1520,261,1600,327,1680,359.3C1760,392,1840,392,1920,375.7C2000,359,2080,327,2160,318.5C2240,310,2320,327,2400,351.2C2480,376,2560,408,2640,408.3C2720,408,2800,376,2880,359.3C2960,343,3040,343,3120,334.8C3200,327,3280,310,3360,269.5C3440,229,3520,163,3600,179.7C3680,196,3760,294,3840,351.2C3920,408,4000,425,4080,424.7C4160,425,4240,408,4320,343C4400,278,4480,163,4560,114.3C4640,65,4720,82,4800,98C4880,114,4960,131,5040,171.5C5120,212,5200,278,5280,269.5C5360,261,5440,180,5520,179.7C5600,180,5680,261,5720,302.2L5760,343L5760,490L5720,490C5680,490,5600,490,5520,490C5440,490,5360,490,5280,490C5200,490,5120,490,5040,490C4960,490,4880,490,4800,490C4720,490,4640,490,4560,490C4480,490,4400,490,4320,490C4240,490,4160,490,4080,490C4000,490,3920,490,3840,490C3760,490,3680,490,3600,490C3520,490,3440,490,3360,490C3280,490,3200,490,3120,490C3040,490,2960,490,2880,490C2800,490,2720,490,2640,490C2560,490,2480,490,2400,490C2320,490,2240,490,2160,490C2080,490,2000,490,1920,490C1840,490,1760,490,1680,490C1600,490,1520,490,1440,490C1360,490,1280,490,1200,490C1120,490,1040,490,960,490C880,490,800,490,720,490C640,490,560,490,480,490C400,490,320,490,240,490C160,490,80,490,40,490L0,490Z"/></svg>